<svg xmlns="http://www.w3.org/2000/svg" viewBox="0 0 512 512" role="img" aria-labelledby="title desc">
  <!-- template-version: 1.0.0 -->
  <title id="title">Sonatelle</title>
  <desc id="desc">A warm abstract interlocked geometric mark for the Sonatelle open-source organization.</desc>
  <metadata>
    {"templateVersion":"1.0.0","name":"Sonatelle Mark Square","type":"organization-avatar"}
  </metadata>
  <defs>
    <linearGradient id="bg" x1="64" y1="64" x2="448" y2="448" gradientUnits="userSpaceOnUse">
      <stop offset="0" stop-color="#fff8ef"/>
      <stop offset="1" stop-color="#f2e2d2"/>
    </linearGradient>
    <linearGradient id="amber" x1="144" y1="110" x2="372" y2="402" gradientUnits="userSpaceOnUse">
      <stop offset="0" stop-color="#f3c89f"/>
      <stop offset="0.48" stop-color="#d9845f"/>
      <stop offset="1" stop-color="#8f5848"/>
    </linearGradient>
    <linearGradient id="rose" x1="372" y1="102" x2="132" y2="410" gradientUnits="userSpaceOnUse">
      <stop offset="0" stop-color="#f7d8b7"/>
      <stop offset="0.52" stop-color="#c96f58"/>
      <stop offset="1" stop-color="#70433d"/>
    </linearGradient>
  </defs>

  <rect width="512" height="512" fill="url(#bg)"/>

  <g transform="translate(256 256)">
    <path
      d="M0-156c31 0 56 25 56 56v50c0 10-8 18-18 18h-76c-10 0-18-8-18-18v-50c0-31 25-56 56-56Z"
      fill="url(#amber)"
      transform="rotate(0)"/>
    <path
      d="M0-156c31 0 56 25 56 56v50c0 10-8 18-18 18h-76c-10 0-18-8-18-18v-50c0-31 25-56 56-56Z"
      fill="url(#rose)"
      transform="rotate(60)"/>
    <path
      d="M0-156c31 0 56 25 56 56v50c0 10-8 18-18 18h-76c-10 0-18-8-18-18v-50c0-31 25-56 56-56Z"
      fill="url(#amber)"
      transform="rotate(120)"/>
    <path
      d="M0-156c31 0 56 25 56 56v50c0 10-8 18-18 18h-76c-10 0-18-8-18-18v-50c0-31 25-56 56-56Z"
      fill="url(#rose)"
      transform="rotate(180)"/>
    <path
      d="M0-156c31 0 56 25 56 56v50c0 10-8 18-18 18h-76c-10 0-18-8-18-18v-50c0-31 25-56 56-56Z"
      fill="url(#amber)"
      transform="rotate(240)"/>
    <path
      d="M0-156c31 0 56 25 56 56v50c0 10-8 18-18 18h-76c-10 0-18-8-18-18v-50c0-31 25-56 56-56Z"
      fill="url(#rose)"
      transform="rotate(300)"/>
    <path
      d="M0-156c-31 0-56 25-56 56v50c0 10 8 18 18 18h40c-17-31-16-85-2-124Z"
      fill="url(#amber)"
      transform="rotate(0)"/>
    <path
      d="M0-156c-31 0-56 25-56 56v50c0 10 8 18 18 18h40c-17-31-16-85-2-124Z"
      fill="url(#rose)"
      transform="rotate(60)"/>
    <path
      d="M0-156c-31 0-56 25-56 56v50c0 10 8 18 18 18h40c-17-31-16-85-2-124Z"
      fill="url(#amber)"
      transform="rotate(120)"/>
    <path
      d="M0-156c-31 0-56 25-56 56v50c0 10 8 18 18 18h40c-17-31-16-85-2-124Z"
      fill="url(#rose)"
      transform="rotate(180)"/>
    <path
      d="M0-156c-31 0-56 25-56 56v50c0 10 8 18 18 18h40c-17-31-16-85-2-124Z"
      fill="url(#amber)"
      transform="rotate(240)"/>
    <path
      d="M0-156c-31 0-56 25-56 56v50c0 10 8 18 18 18h40c-17-31-16-85-2-124Z"
      fill="url(#rose)"
      transform="rotate(300)"/>
    <circle r="62" fill="#fbefe2"/>
    <circle r="25" fill="#b96d55"/>
  </g>
</svg>
